<svg xmlns="http://www.w3.org/2000/svg" width="188.343" height="168.87" viewBox="0 0 188.343 168.87"><path d="M23174.1 14215.8h-1043.8c-70.6 0-114.6 76.3-79.3 137.4l521.8 903.9c35.3 61.1 123.5 61.1 158.8 0l521.8-903.9c35.3-61.1-8.9-137.4-79.3-137.4m162.2 161.6-542.3 939.3c-63.1 109.1-220.6 109.1-283.5 0l-542.4-939.3c-63.1-109.1 15.8-245.4 141.8-245.4h1084.6c126 0 204.8 136.3 141.8 245.4" style="fill:#f6871c;fill-opacity:1;fill-rule:nonzero;stroke:none" transform="matrix(.13333 0 0 -.13333 -2926.119 2053.137)"/><path d="m22652.1 14979.1 321-555.7h-641.7zm0 164-462.7-801.7h925.7z" style="fill:#f6871c;fill-opacity:1;fill-rule:nonzero;stroke:none" transform="matrix(.13333 0 0 -.13333 -2926.119 2053.137)"/></svg>