<svg xmlns="http://www.w3.org/2000/svg" width="201.652" height="111.227" viewBox="0 0 201.652 111.227"><path d="M9936.25 19514h-338.44c-87.44 0-147.14-209.6-147.14-417.1s59.7-417.1 147.14-417.1h338.44c230.35 0 417.15 186.7 417.15 417.1s-186.8 417.1-417.15 417.1m0-109.1c169.85 0 308.05-138.2 308.05-308 0-169.9-138.2-308-308.05-308h-316.98c-24.37 36.9-59.5 153.9-59.5 308 0 154 35.13 271.1 59.5 308z" style="fill:#f6871c;fill-opacity:1;fill-rule:nonzero;stroke:none" transform="matrix(.13333 0 0 -.13333 -1178.801 2601.867)"/><path d="M1253.387 1403.68h-74.015v10.693h74.015zm0 22.32h-74.015v10.693h74.015zm-.572 22.32H1178.8v10.693h74.014zm0 22.32H1178.8v10.693h74.014zm0 22.32H1178.8v10.693h74.014z" style="fill:#f6871c;fill-opacity:1;fill-rule:nonzero;stroke:none;stroke-width:.133333" transform="translate(-1178.801 -1398.133)"/></svg>