<svg xmlns="http://www.w3.org/2000/svg" width="204.239" height="123.08" viewBox="0 0 204.239 123.08"><path d="M7793 19557.4h-338.45c-87.44 0-147.14-209.7-147.14-417.1 0-207.5 59.7-417.2 147.14-417.2H7793c230.37 0 417.13 186.8 417.13 417.2 0 230.3-186.76 417.1-417.13 417.1m0-109.1c169.85 0 308.03-138.2 308.03-308 0-169.9-138.18-308.1-308.03-308.1h-316.98c-24.38 37-59.51 154-59.51 308.1 0 154 35.13 271 59.51 308zm-539.71 65.8-554.54-119.3-20.41-98 564.14 119.3zm0-165.6-554.54-119.3-20.41-98 564.14 119.3zm0-165.7-554.54-119.3-20.41-98 564.14 119.3zm0-165.6-554.54-119.3-20.41-98 564.14 119.3zm0-165.6-554.54-119.3-20.41-98 564.14 119.3z" style="fill:#f6871c;fill-opacity:1;fill-rule:nonzero;stroke:none" transform="matrix(.13333 0 0 -.13333 -890.445 2607.653)"/></svg>