<svg xmlns="http://www.w3.org/2000/svg" width="137.742" height="187.387" viewBox="0 0 137.742 187.387"><path d="M12058.4 15468h-548.9c-46 0-83.3-37.3-83.3-83.4v-455.8c0-46 37.3-83.3 83.3-83.3h548.9c46 0 83.3 37.3 83.3 83.3v455.8c0 46.1-37.3 83.4-83.3 83.4m-25.8-109.1v-404.3h-497.3v404.3z" style="fill:#f6871c;fill-opacity:1;fill-rule:nonzero;stroke:none" transform="matrix(.13333 0 0 -.13333 -1513.653 2062.4)"/><path d="M12000.5 14062.6h-429.9v866.3h429.9z" style="fill:#f6871c;fill-opacity:1;fill-rule:nonzero;stroke:none" transform="matrix(.13333 0 0 -.13333 -1513.653 2062.4)"/><path d="M12363.1 14062.6h-1010.7v54.5h1010.7zm-68.4 1160.5h-21.4v38.4h21.4zm89.3-806c-11.3 147.6-75.4 580.7-52.9 739.6h15.6c2.8 13.7 6.8 117.9 0 138-4 7.1-141.9 120.9-154.5 108.2-23.2-23.7-25.8-43.7-20.5-61.1 16.7-14.6 31.8-15.1 45.4-33.4 10.5-21.7-11.3-89.8 24.7-118.8 15.5-13.6 24.2-14.5 32.2-4.9-26.4-65.4-20-359.6 5.6-524.2 9.7-83.4 37.5-282.3 31.1-323.1 5.3-101.6-135.8-130.5-151.8 18.2-7.6 170 65.1 375.5 29.8 502.8-19.2 50.1-26.1 65.6-53.4 76.9-43.8 9.6-54.6-22.4-36.9-38.4 17.6-16.2 43.4-79.3 24.1-234.4-42.9-209.6-56.7-430.9 85-466.7 134.3-30.6 187.8 73.8 176.5 221.3" style="fill:#f6871c;fill-opacity:1;fill-rule:nonzero;stroke:none" transform="matrix(.13333 0 0 -.13333 -1513.653 2062.4)"/></svg>