<svg xmlns="http://www.w3.org/2000/svg" width="221.36" height="121.88" viewBox="0 0 221.36 121.88"><path d="M16557.6 15106.1h-1.4c-143.1-8-297.1-159.4-303.3-324-14.7-219.6 158.2-368.5 296.7-377.5l1.9-.1c7.5 0 14.6 3 19 8.6 44.1 55.7 120.7 196.6 112.5 341.3-21.1 209.2-70.5 281.3-106.3 341.7-3.8 6.3-11.1 10-19.1 10m-34.7-98.2c27.4-49.5 54.8-116.9 69.5-260.5 4.4-90.4-35.1-186.9-71-245.7-39.1 11.9-79.6 38.8-111.4 75.1-33.8 38.6-72.8 104.4-66.4 199.2l.1 1.3v1.3c4 105.1 94 202 179.2 229.3m-639.1 98.2c-7.9 0-15.2-3.7-19-10-35.8-60.4-85.2-132.5-106.3-341.7-8.2-144.7 68.4-285.6 112.5-341.3 4.4-5.6 11.5-8.6 19-8.6l1.9.1c138.5 9 311.4 157.9 296.7 377.5-6.3 164.6-160.2 316-303.3 324zm34.8-98.2c85.2-27.3 175.2-124.2 179.2-229.3v-1.3l.1-1.3c6.3-94.8-32.6-160.6-66.4-199.2-31.8-36.3-72.3-63.2-111.4-75.1-35.9 58.8-75.4 155.3-71 245.7 14.7 143.6 42.1 211 69.5 260.5m1109.9-191.3H16750v-102.7h278.5zm-135.6 405.7-238-144.7 53.4-87.7 237.9 144.7zm-164.5-681.7-53.3-87.7 237.9-144.7 53.4 87.8zm-1081.6 276h-278.5v-102.7h278.5zm-142.9 405.7-53.3-87.7 237.9-144.7 53.4 87.7zm164.5-681.7-238-144.6 53.4-87.8 237.9 144.7z" style="fill:#f6871c;fill-opacity:1;fill-rule:nonzero;stroke:none" transform="matrix(.13333 0 0 -.13333 -2049.107 2029.64)"/></svg>