<svg xmlns="http://www.w3.org/2000/svg" width="178.009" height="154.307" viewBox="0 0 178.009 154.307"><path d="M11740.4 19540.7c-4.5 0-9.1-.7-13.5-2.3l-552.1-198.8c-20.9-7.5-31.7-30.5-24.2-51.3 5.9-16.4 21.3-26.5 37.7-26.5 4.6 0 9.1.7 13.6 2.3l552.1 198.8c20.9 7.5 31.7 30.5 24.2 51.3-5.9 16.4-21.3 26.5-37.8 26.5m0-271.6c-4.5 0-9.1-.8-13.5-2.4l-552.1-198.8c-20.9-7.5-31.7-30.4-24.2-51.3 5.9-16.3 21.3-26.5 37.7-26.5 4.6 0 9.1.8 13.6 2.4l552.1 198.7c20.9 7.5 31.7 30.5 24.2 51.3-5.9 16.4-21.3 26.6-37.8 26.6m17.1-271.7q-6.75 0-13.5-2.4l-552.1-198.7c-20.9-7.5-31.7-30.5-24.2-51.4 5.9-16.3 21.3-26.5 37.8-26.5 4.5 0 9.1.8 13.5 2.4l552.1 198.7c20.9 7.5 31.7 30.5 24.2 51.4-5.9 16.3-21.3 26.5-37.8 26.5m272.1 677.1c-11.8 0-22.7-6.2-28.3-16.7-53.1-99.6-126.5-218.5-157.9-563.5-12.1-238.8 101.6-471.1 167-562.9 6.6-9.2 17.2-14.2 28.3-14.2 1 0 1.9 0 2.8.1 205.6 14.9 462.2 260.5 440.5 622.7-9.4 271.4-237.9 521.2-450.4 534.4zm32.2-96.1c151.3-34.7 321.8-223.6 329.3-441.5v-1.2l.1-1.2c17.4-289.5-169.2-488.6-325.4-522.1-63.5 102.6-140.4 292.8-131.7 475.6 26.1 284.4 80.8 402.1 127.7 490.4" style="fill:#f6871c;fill-opacity:1;fill-rule:nonzero;stroke:none" transform="matrix(.13333 0 0 -.13333 -1486.43 2623.267)"/><path d="M11481.5 18549.1c-9.4 0-18.7 3.6-25.8 10.8-14.2 14.2-14.1 37.2.2 51.4 57.4 56.9 80.3 113.8 70.2 174.1-5.4 32.1-23.9 59.9-43.6 89.3-28.8 43.1-61.4 91.8-46.7 156.1 7 30.9 27.9 60 49.9 90.8 16.7 23.3 34 47.5 43.2 70.3 20 49.5-5.6 112.1-63.7 155.9-34.8 26.2-52.1 62.1-50 103.8 3.9 76 72.9 150.9 120.6 179.7 17.2 10.4 39.6 4.9 50-12.2 10.3-17.2 4.9-39.6-12.3-50-34.3-20.7-83.4-76.8-85.6-121.2-.9-17.4 5.6-30.4 21-42 84.8-63.9 120-160.8 87.5-241.2-12.5-30.9-33.2-59.9-51.6-85.5-16.9-23.5-34.3-47.9-38.1-64.6-7.4-32.1 9-58.7 36.2-99.4 22-32.9 47-70.2 55-117.8 14.1-84.1-16.5-164.1-90.8-237.8-7.1-7-16.3-10.5-25.6-10.5" style="fill:#f6871c;fill-opacity:1;fill-rule:nonzero;stroke:none" transform="matrix(.13333 0 0 -.13333 -1486.43 2623.267)"/></svg>