<svg xmlns="http://www.w3.org/2000/svg" width="233.027" height="93.307" viewBox="0 0 233.027 93.307"><path d="m11253.1 10316.2-311.2 118.3v362.8l311.2-99.7zm96.3-218.7h-96.3v600.1l96.3-41.7z" style="fill:#f6871c;fill-opacity:1;fill-rule:nonzero;stroke:none" transform="matrix(.13333 0 0 -.13333 -1458.92 1439.64)"/><path d="M12066.5 10193.8v-96.3H11290l54 96.3z" style="fill:#f6871c;fill-opacity:1;fill-rule:nonzero;stroke:none" transform="matrix(.13333 0 0 -.13333 -1458.92 1439.64)"/><path d="m12530.6 10697.7 67.9-68.2-532-532-47.7 90.2z" style="fill:#f6871c;fill-opacity:1;fill-rule:nonzero;stroke:none" transform="matrix(.13333 0 0 -.13333 -1458.92 1439.64)"/><path d="m12039.1 10397.6-40.6 87.3 540.5 230.3 59.5-85.7z" style="fill:#f6871c;fill-opacity:1;fill-rule:nonzero;stroke:none" transform="matrix(.13333 0 0 -.13333 -1458.92 1439.64)"/><path d="m12032.2 10499.2 6.9-101.6-157.1 111v96.3zm-150.2 105.7v-96.3h-620.8l43.1 96.3zm-105 170v-96.2h-345v96.2z" style="fill:#f6871c;fill-opacity:1;fill-rule:nonzero;stroke:none" transform="matrix(.13333 0 0 -.13333 -1458.92 1439.64)"/><path d="M11652.6 10584.5h-96.2v130.7h96.2zm1037-297.1c0-60.6-49.1-109.6-109.7-109.6-60.5 0-109.6 49-109.6 109.6 0 60.5 109.6 209.1 109.6 209.1s109.7-148.6 109.7-209.1" style="fill:#f6871c;fill-opacity:1;fill-rule:nonzero;stroke:none" transform="matrix(.13333 0 0 -.13333 -1458.92 1439.64)"/></svg>