<svg xmlns="http://www.w3.org/2000/svg" width="181.772" height="154.307" viewBox="0 0 181.772 154.307"><path d="M14146.5 19429.3c-22.1 0-40.1-17.9-40.1-40-.1-22.2 17.8-40.2 40-40.3l586.7-1.6h.2c22.1 0 40 17.9 40.1 40 0 22.1-17.9 40.1-40 40.2l-586.8 1.7zm0-279.2c-22.1 0-40.1-17.9-40.1-40-.1-22.2 17.8-40.2 40-40.2l586.7-1.7h.2c22.1 0 40 17.9 40.1 40 0 22.2-17.9 40.2-40 40.3l-586.8 1.6zm0-279.2c-22.1 0-40.1-17.8-40.1-40-.1-22.1 17.8-40.1 40-40.2l586.7-1.6h.2c22.1 0 40 17.9 40.1 40 0 22.1-17.9 40.1-40 40.2l-586.8 1.6zm-282.7 803.6-2.1-.1c-212.4-13.2-441-263-450.3-534.4-21.7-362.2 234.8-607.8 440.5-622.7.9-.1 1.8-.1 2.7-.1 11.2 0 21.8 5 28.3 14.2 65.5 91.8 179.2 324.1 167 562.9-31.3 345-104.7 463.9-157.8 563.5-5.6 10.5-16.5 16.7-28.3 16.7m-32.3-96.1c47-88.3 101.7-206 127.7-490.4 8.8-182.8-68.1-373-131.6-475.6-156.3 33.5-342.8 232.6-325.4 522.1v1.2l.1 1.2c7.5 217.9 178 406.8 329.2 441.5" style="fill:#f6871c;fill-opacity:1;fill-rule:nonzero;stroke:none" transform="translate(1969.787 2623.267)scale(-.13333)"/><path d="M14411.9 18549.1c-9.3 0-18.5 3.5-25.6 10.5-74.4 73.7-104.9 153.7-90.8 237.8 8 47.6 32.9 84.9 54.9 117.8 27.3 40.7 43.6 67.3 36.3 99.4-3.8 16.7-21.3 41.1-38.2 64.7-18.3 25.5-39 54.5-51.5 85.4-32.5 80.4 2.7 177.3 87.4 241.2 15.5 11.6 22 24.6 21.1 42-2.3 44.4-51.4 100.5-85.6 121.2-17.2 10.4-22.7 32.8-12.3 50 10.4 17.1 32.8 22.7 50 12.2 47.7-28.8 116.7-103.7 120.5-179.7 2.1-41.7-15.1-77.6-49.9-103.8-58.1-43.8-83.7-106.4-63.8-155.9 9.2-22.8 26.5-46.9 43.3-70.3 22-30.8 42.8-59.9 49.9-90.8 14.7-64.3-17.9-113-46.7-156.1-19.7-29.4-38.3-57.2-43.7-89.3-10.1-60.3 12.9-117.2 70.3-174.1 14.2-14.2 14.3-37.2.2-51.4-7.1-7.2-16.5-10.8-25.8-10.8" style="fill:#f6871c;fill-opacity:1;fill-rule:nonzero;stroke:none" transform="translate(1969.787 2623.267)scale(-.13333)"/></svg>