<svg xmlns="http://www.w3.org/2000/svg" width="218.327" height="186.605" viewBox="0 0 218.327 186.605"><path d="M9597.2 15091.3c-286.57 0-573.13-86.3-818.75-258.9 157.61-224.3 315.22-448.5 472.84-672.8 103.77 73 224.84 109.4 345.91 109.4s242.13-36.4 345.9-109.4c157.6 224.3 315.2 448.5 472.8 672.8-245.6 172.6-532.14 258.9-818.7 258.9m0-109.1c235.45 0 463-61.9 664.2-180l-349.61-497.4c-97.35 48.2-204.36 73.3-314.59 73.3-110.24 0-217.25-25.1-314.6-73.3l-239.95 341.4-109.65 156c201.24 118.1 428.74 180 664.2 180" style="fill:#f6871c;fill-opacity:1;fill-rule:nonzero;stroke:none" transform="matrix(.13333 0 0 -.13333 -1170.46 2062.005)"/><path d="m10063.5 14512-111.27-229.5h-716.58l-106 238.6 89.82 56.7 19.27-.3 19.82-.6c-6.73-13.3-10.36-28.2-10.36-44 0-54.9 44.73-99.6 99.64-99.6s99.64 44.7 99.64 99.6c0 14.2-2.91 27.8-8.36 40l19.63-.4 37.1-.9 21.45-.5c-12.36-16.6-19.64-36.9-19.64-59.1 0-54.9 44.55-99.6 99.46-99.6s99.64 44.7 99.64 99.6c0 20.5-6.36 39.6-17.09 55.5l21.64-.4 26.18-.6 19.09-.5c-3.81-10.4-5.81-21.5-5.81-33.1 0-54.9 44.73-99.6 99.64-99.6s99.64 44.7 99.64 99.6c0 10-1.46 19.8-4.36 28.9l18.9-.3 21.28-.6zm-372.98 793-66.69 65.3c28.96 38.1 80.22 68.5 134.77 78.8l10-84.3c-29.07-11.8-58.98-34.7-78.08-59.8m268.74 20.1c-31.67 36.6-107.61 53.6-143.98 53.6l5.35 84.3c38.5 6.8 127.28 0 203.57-74.2zm130.94-214-90.44 15.2c31.54 91.8-1.7 140.2-10.71 160.6l85.05 38.2c3-16 51.1-119.5 16.1-214m-592.95 193.9 66.68 65.3c-28.96 38.1-80.21 68.5-134.76 78.8l-10.01-84.3c29.08-11.8 58.99-34.7 78.09-59.8m-268.75 20.1c31.68 36.6 107.62 53.6 143.98 53.6l-5.35 84.3c-38.5 6.8-127.27 0-203.53-74.2zm-130.9-214 90.41 15.2c-31.58 91.8 1.7 140.2 10.7 160.6l-85.06 38.2c-2.99-16-51.05-119.5-16.05-214m536.93-533.3h-89.85v149.6h89.85zm0-512.3h-89.85v149.6h89.85zm0 715.9h-89.85v149.6h89.85zm0 361.9h-89.85v149.6h89.85z" style="fill:#f6871c;fill-opacity:1;fill-rule:nonzero;stroke:none" transform="matrix(.13333 0 0 -.13333 -1170.46 2062.005)"/><path d="m9589.6 15337.6-81.54-74.6h163.09z" style="fill:#f6871c;fill-opacity:1;fill-rule:nonzero;stroke:none" transform="matrix(.13333 0 0 -.13333 -1170.46 2062.005)"/></svg>