<?xml version="1.0" encoding="UTF-8" standalone="no"?>
<svg
   width="354.69919"
   height="394.23438"
   viewBox="0 0 354.69919 394.23438"
   version="1.1"
   id="svg27"
   sodipodi:docname="vecteezy_collection-of-arrow-directions-with-various-shapes_11592120.svg"
   inkscape:version="1.4 (e7c3feb1, 2024-10-09)"
   xmlns:inkscape="http://www.inkscape.org/namespaces/inkscape"
   xmlns:sodipodi="http://sodipodi.sourceforge.net/DTD/sodipodi-0.dtd"
   xmlns="http://www.w3.org/2000/svg"
   xmlns:svg="http://www.w3.org/2000/svg">
  <defs
     id="defs27" />
  <sodipodi:namedview
     id="namedview27"
     pagecolor="#505050"
     bordercolor="#eeeeee"
     borderopacity="1"
     inkscape:showpageshadow="0"
     inkscape:pageopacity="0"
     inkscape:pagecheckerboard="0"
     inkscape:deskcolor="#505050"
     inkscape:zoom="0.24256564"
     inkscape:cx="123.67786"
     inkscape:cy="53.593741"
     inkscape:window-width="1728"
     inkscape:window-height="979"
     inkscape:window-x="0"
     inkscape:window-y="38"
     inkscape:window-maximized="1"
     inkscape:current-layer="svg27" />
  <path
     fill-rule="evenodd"
     fill="#000000"
     fill-opacity="1"
     d="M 177.3496,254.94222 349.73121,322.49466 177.3496,23.890185 4.9679826,322.49466 Z m -32.53463,79.06749 c 0,-20.07308 14.56612,-36.34592 32.53463,-36.34592 17.96852,0 32.53464,16.27284 32.53464,36.34592 0,20.06165 -14.56612,36.33448 -32.53464,36.33448 -17.96851,0 -32.53463,-16.27283 -32.53463,-36.33448"
     id="path3"
     sodipodi:nodetypes="ccccccsssc"
     style="stroke-width:0.924221" />
  <path
     fill="none"
     stroke-width="0.216"
     stroke-linecap="butt"
     stroke-linejoin="miter"
     stroke="#000000"
     stroke-opacity="1"
     stroke-miterlimit="22.9256"
     d="M 1927.3618,191.76449 1858.2017,388.88168 2163.9126,191.76449 1858.2017,-5.3527 Z m -80.9492,-37.20312 c 20.5508,0 37.2109,16.65625 37.2109,37.20312 0,20.54688 -16.6601,37.20313 -37.2109,37.20313 -20.5391,0 -37.1992,-16.65625 -37.1992,-37.20313 0,-20.54687 16.6601,-37.20312 37.1992,-37.20312 z m 0,0"
     id="path4" />
  <path
     fill="none"
     stroke-width="0.216"
     stroke-linecap="butt"
     stroke-linejoin="miter"
     stroke="#000000"
     stroke-opacity="1"
     stroke-miterlimit="22.9256"
     d="M 1927.3618,191.76449 1858.2017,388.88168 2163.9126,191.76449 1858.2017,-5.3527 Z m -80.9492,-37.20312 c 20.5508,0 37.2109,16.65625 37.2109,37.20312 0,20.54688 -16.6601,37.20313 -37.2109,37.20313 -20.5391,0 -37.1992,-16.65625 -37.1992,-37.20313 0,-20.54687 16.6601,-37.20312 37.1992,-37.20312 z m 0,0"
     id="path28" />
</svg>
